<?xml version="1.0" encoding="UTF-8"?>
<svg xmlns="http://www.w3.org/2000/svg" xmlns:xlink="http://www.w3.org/1999/xlink" xmlns:svgjs="http://svgjs.com/svgjs" version="1.1" width="512" height="512" x="0" y="0" viewBox="0 0 512 512" style="enable-background:new 0 0 512 512" xml:space="preserve" class="">
  <g>
    <linearGradient xmlns="http://www.w3.org/2000/svg" id="SVGID_1_" gradientUnits="userSpaceOnUse" x1="437.767" x2="91.681" y1="187.054" y2="533.139">
      <stop stop-opacity="1" stop-color="#4058d0" offset="0"/>
      <stop stop-opacity="1" stop-color="#566ee7" offset="1"/>
    </linearGradient>
    <path xmlns="http://www.w3.org/2000/svg" d="m440.8 390.806h-117.728c-39.26 0-71.2 31.94-71.2 71.201v23.367c0 8.836 7.163 16 16 16h228.128c8.837 0 16-7.164 16-16v-23.367c0-39.26-31.94-71.201-71.2-71.201zm39.2 78.568h-196.128v-7.367c0-21.615 17.585-39.201 39.2-39.201h117.728c21.615 0 39.2 17.585 39.2 39.201zm-189.146-155.011c-1.816 4.041-2.78 8.458-2.78 13.03 0 8.488 3.294 16.456 9.275 22.437l13.558 13.558c6.188 6.187 14.312 9.279 22.438 9.279 8.124 0 16.252-3.094 22.437-9.278l106.725-106.723c12.369-12.373 12.368-32.502-.003-44.874l-13.558-13.558c-9.572-9.571-23.787-11.73-35.462-6.49-22.964-16.662-46.6-36.985-68.905-59.289-20.126-20.126-38.776-41.499-54.462-62.368 2.173-4.348 3.331-9.176 3.331-14.189 0-8.488-3.294-16.457-9.275-22.438l-13.558-13.558c-5.98-5.981-13.949-9.275-22.438-9.275s-16.457 3.294-22.438 9.275l-106.722 106.721c-5.981 5.981-9.275 13.949-9.275 22.437s3.294 16.457 9.275 22.437l13.559 13.559c6.187 6.186 14.312 9.278 22.438 9.278 4.867 0 9.732-1.119 14.183-3.339 8.926 6.709 17.943 13.959 26.917 21.637l-179.971 168.147c-.133.124-.263.25-.391.378-20.969 20.968-20.969 55.085 0 76.053l9.442 9.442c10.483 10.484 24.255 15.727 38.026 15.727s27.544-5.242 38.027-15.727c.128-.128.254-.258.378-.39l167.705-179.496c7.682 9.222 14.896 18.462 21.524 27.597zm148.833-80.134-106.343 106.342-13.178-13.179 106.342-106.342zm-50.774-20.838-76.406 76.407c-16.796-22.476-36.695-45.347-58.311-66.962-19.908-19.908-40.312-37.903-60.844-53.682l74.918-74.918c15.778 20.532 33.773 40.936 53.682 60.845 21.614 21.614 44.485 41.513 66.961 58.31zm-233.901-51.153-13.178-13.178 106.342-106.342 13.178 13.178zm-76.558 281.952c-4.094 4.01-9.494 6.214-15.233 6.214-5.816 0-11.285-2.266-15.399-6.379l-9.442-9.442c-8.436-8.436-8.49-22.128-.165-30.632l181.739-169.8c3.908 3.713 7.786 7.482 11.615 11.312 5.646 5.646 11.156 11.38 16.521 17.164z" fill="url(#SVGID_1_)" data-original="url(#SVGID_1_)"/>
  </g>
</svg>
