<?xml version="1.0" encoding="UTF-8"?>
<svg xmlns="http://www.w3.org/2000/svg" xmlns:xlink="http://www.w3.org/1999/xlink" xmlns:svgjs="http://svgjs.com/svgjs" version="1.1" width="512" height="512" x="0" y="0" viewBox="0 0 32 32" style="enable-background:new 0 0 512 512" xml:space="preserve" class="">
  <g>
    <linearGradient xmlns="http://www.w3.org/2000/svg" id="Orange_Yellow" gradientUnits="userSpaceOnUse" x1="-3.994" x2="25.492" y1="22.98" y2="3.621">
      <stop stop-opacity="1" stop-color="#566ee7" offset="0"/>
      <stop stop-opacity="1" stop-color="#566ee7" offset="0.04"/>
      <stop stop-opacity="1" stop-color="#566ee7" offset="0.117"/>
      <stop stop-opacity="1" stop-color="#566ee7" offset="0.196"/>
      <stop stop-opacity="1" stop-color="#566ee7" offset="0.281"/>
      <stop stop-opacity="1" stop-color="#4058d0" offset="0.6216216216216216"/>
      <stop stop-opacity="1" stop-color="#4058d0" offset="0.888"/>
      <stop stop-opacity="1" stop-color="#4058d0" offset="1"/>
    </linearGradient>
    <linearGradient xmlns="http://www.w3.org/2000/svg" xmlns:xlink="http://www.w3.org/1999/xlink" id="Orange_Yellow-2" x1="-4.95" x2="24.536" xlink:href="#Orange_Yellow" y1="21.525" y2="2.165"/>
    <linearGradient xmlns="http://www.w3.org/2000/svg" xmlns:xlink="http://www.w3.org/1999/xlink" id="Orange_Yellow-3" x1=".673" x2="30.159" xlink:href="#Orange_Yellow" y1="30.089" y2="10.729"/>
    <linearGradient xmlns="http://www.w3.org/2000/svg" xmlns:xlink="http://www.w3.org/1999/xlink" id="Orange_Yellow-4" x1="2.731" x2="32.218" xlink:href="#Orange_Yellow" y1="33.223" y2="13.864"/>
    <path xmlns="http://www.w3.org/2000/svg" d="m15.867 14.881a4.941 4.941 0 1 0 -4.941-4.94 4.946 4.946 0 0 0 4.941 4.94zm0-7.881a2.941 2.941 0 1 1 -2.941 2.941 2.945 2.945 0 0 1 2.941-2.941z" fill="url(#Orange_Yellow)" data-original="url(#Orange_Yellow)"/>
    <path xmlns="http://www.w3.org/2000/svg" d="m6.533 17.785a3.8 3.8 0 1 0 -3.8-3.8 3.8 3.8 0 0 0 3.8 3.8zm0-5.6a1.8 1.8 0 1 1 -1.8 1.8 1.8 1.8 0 0 1 1.8-1.8z" fill="url(#Orange_Yellow-2)" data-original="url(#Orange_Yellow-2)"/>
    <path xmlns="http://www.w3.org/2000/svg" d="m25.2 17.785a3.8 3.8 0 1 0 -3.8-3.8 3.8 3.8 0 0 0 3.8 3.8zm0-5.6a1.8 1.8 0 1 1 -1.8 1.8 1.8 1.8 0 0 1 1.8-1.8z" fill="url(#Orange_Yellow-3)" data-original="url(#Orange_Yellow-3)"/>
    <path xmlns="http://www.w3.org/2000/svg" d="m25.333 19.791a5.269 5.269 0 0 0 -2.506.653 8.237 8.237 0 0 0 -6.827-3.837 8.237 8.237 0 0 0 -6.827 3.837 5.269 5.269 0 0 0 -2.506-.653 5.963 5.963 0 0 0 -5.667 6.209 1 1 0 0 0 2 0 3.971 3.971 0 0 1 3.667-4.209 3.272 3.272 0 0 1 1.577.419 10.085 10.085 0 0 0 -.711 3.732 1 1 0 0 0 2 0c0-4.045 2.9-7.335 6.467-7.335s6.467 3.29 6.467 7.335a1 1 0 0 0 2 0 10.085 10.085 0 0 0 -.711-3.732 3.272 3.272 0 0 1 1.577-.419 3.971 3.971 0 0 1 3.667 4.209 1 1 0 0 0 2 0 5.963 5.963 0 0 0 -5.667-6.209z" fill="url(#Orange_Yellow-4)" data-original="url(#Orange_Yellow-4)"/>
  </g>
</svg>
